HIERARCHY
ROOT mixamorig:Hips
{
	OFFSET 0.000000 201.639420 0.000000
	CHANNELS 6 Xposition Yposition Zposition Xrotation Yrotation Zrotation
	JOINT mixamorig:Spine
	{
		OFFSET 0.006200 19.524994 -2.481800
		CHANNELS 3 Xrotation Yrotation Zrotation
		JOINT mixamorig:Spine1
		{
			OFFSET -0.000900 22.835007 -2.825400
			CHANNELS 3 Xrotation Yrotation Zrotation
			JOINT mixamorig:Spine2
			{
				OFFSET -0.020600 26.552490 -3.193300
				CHANNELS 3 Xrotation Yrotation Zrotation
				JOINT mixamorig:Neck
				{
					OFFSET -0.060000 30.701813 1.352200
					CHANNELS 3 Xrotation Yrotation Zrotation
					JOINT mixamorig:Head
					{
						OFFSET -0.087200 22.547607 3.670900
						CHANNELS 3 Xrotation Yrotation Zrotation
						JOINT mixamorig:HeadTop_End
						{
							OFFSET -0.830600 40.355194 7.893500
							CHANNELS 3 Xrotation Yrotation Zrotation
							End Site
							{
								OFFSET 0.000000 30.592346 0.000000
							}
						}
						JOINT mixamorig:RightEye
						{
							OFFSET -6.302100 18.118591 16.197100
							CHANNELS 3 Xrotation Yrotation Zrotation
							End Site
							{
								OFFSET 0.000000 30.592346 0.000000
							}
						}
						JOINT mixamorig:LeftEye
						{
							OFFSET 6.741500 18.382690 16.401899
							CHANNELS 3 Xrotation Yrotation Zrotation
							End Site
							{
								OFFSET 0.000000 30.592346 0.000000
							}
						}
					}
				}
				JOINT mixamorig:LeftShoulder
				{
					OFFSET 11.924900 18.230499 1.425400
					CHANNELS 3 Xrotation Yrotation Zrotation
					JOINT mixamorig:LeftArm
					{
						OFFSET 25.435989 -0.697632 -5.229300
						CHANNELS 3 Xrotation Yrotation Zrotation
						JOINT mixamorig:LeftForeArm
						{
							OFFSET 54.684776 0.000000 0.000000
							CHANNELS 3 Xrotation Yrotation Zrotation
							JOINT mixamorig:LeftHand
							{
								OFFSET 55.098175 0.000000 0.000000
								CHANNELS 3 Xrotation Yrotation Zrotation
								JOINT mixamorig:LeftHandMiddle1
								{
									OFFSET 23.369751 0.000000 0.000000
									CHANNELS 3 Xrotation Yrotation Zrotation
									JOINT mixamorig:LeftHandMiddle2
									{
										OFFSET 6.378677 0.000000 0.000000
										CHANNELS 3 Xrotation Yrotation Zrotation
										JOINT mixamorig:LeftHandMiddle3
										{
											OFFSET 6.148331 0.000000 0.000000
											CHANNELS 3 Xrotation Yrotation Zrotation
											JOINT mixamorig:LeftHandMiddle4
											{
												OFFSET 6.582504 0.000000 0.000000
												CHANNELS 3 Xrotation Yrotation Zrotation
												End Site
												{
													OFFSET -1.168900 6.395691 1.028606
												}
											}
										}
									}
								}
								JOINT mixamorig:LeftHandThumb1
								{
									OFFSET 7.235672 -3.848206 5.434273
									CHANNELS 3 Xrotation Yrotation Zrotation
									JOINT mixamorig:LeftHandThumb2
									{
										OFFSET 6.568451 -3.792297 3.792300
										CHANNELS 3 Xrotation Yrotation Zrotation
										JOINT mixamorig:LeftHandThumb3
										{
											OFFSET 6.063080 -3.500519 3.500518
											CHANNELS 3 Xrotation Yrotation Zrotation
											JOINT mixamorig:LeftHandThumb4
											{
												OFFSET 4.793182 -2.767334 2.767349
												CHANNELS 3 Xrotation Yrotation Zrotation
												End Site
												{
													OFFSET 0.101639 6.054260 1.275483
												}
											}
										}
									}
								}
								JOINT mixamorig:LeftHandIndex1
								{
									OFFSET 23.101074 -0.309540 4.992809
									CHANNELS 3 Xrotation Yrotation Zrotation
									JOINT mixamorig:LeftHandIndex2
									{
										OFFSET 6.226883 0.000000 0.000000
										CHANNELS 3 Xrotation Yrotation Zrotation
										JOINT mixamorig:LeftHandIndex3
										{
											OFFSET 6.094330 0.000000 0.000000
											CHANNELS 3 Xrotation Yrotation Zrotation
											JOINT mixamorig:LeftHandIndex4
											{
												OFFSET 5.482605 0.000000 0.000000
												CHANNELS 3 Xrotation Yrotation Zrotation
												End Site
												{
													OFFSET -1.427902 5.233032 0.797164
												}
											}
										}
									}
								}
								JOINT mixamorig:LeftHandRing1
								{
									OFFSET 22.299240 0.021149 -3.964172
									CHANNELS 3 Xrotation Yrotation Zrotation
									JOINT mixamorig:LeftHandRing2
									{
										OFFSET 6.321869 0.000000 0.000000
										CHANNELS 3 Xrotation Yrotation Zrotation
										JOINT mixamorig:LeftHandRing3
										{
											OFFSET 5.899796 0.000000 0.000000
											CHANNELS 3 Xrotation Yrotation Zrotation
											JOINT mixamorig:LeftHandRing4
											{
												OFFSET 6.517899 0.000000 0.000000
												CHANNELS 3 Xrotation Yrotation Zrotation
												End Site
												{
													OFFSET -1.637299 6.232208 0.980890
												}
											}
										}
									}
								}
								JOINT mixamorig:LeftHandPinky1
								{
									OFFSET 20.463791 -0.302338 -8.562233
									CHANNELS 3 Xrotation Yrotation Zrotation
									JOINT mixamorig:LeftHandPinky2
									{
										OFFSET 6.908646 0.000000 0.000000
										CHANNELS 3 Xrotation Yrotation Zrotation
										JOINT mixamorig:LeftHandPinky3
										{
											OFFSET 4.622849 0.000000 0.000000
											CHANNELS 3 Xrotation Yrotation Zrotation
											JOINT mixamorig:LeftHandPinky4
											{
												OFFSET 5.216080 0.000000 0.000000
												CHANNELS 3 Xrotation Yrotation Zrotation
												End Site
												{
													OFFSET -0.606308 5.116241 0.814926
												}
											}
										}
									}
								}
							}
						}
					}
				}
				JOINT mixamorig:RightShoulder
				{
					OFFSET -12.001300 18.284088 1.348900
					CHANNELS 3 Xrotation Yrotation Zrotation
					JOINT mixamorig:RightArm
					{
						OFFSET -25.308500 -0.751312 -5.164599
						CHANNELS 3 Xrotation Yrotation Zrotation
						JOINT mixamorig:RightForeArm
						{
							OFFSET -54.684429 0.000000 0.000000
							CHANNELS 3 Xrotation Yrotation Zrotation
							JOINT mixamorig:RightHand
							{
								OFFSET -55.150291 0.000000 0.000000
								CHANNELS 3 Xrotation Yrotation Zrotation
								JOINT mixamorig:RightHandMiddle1
								{
									OFFSET -23.317566 0.000000 0.000000
									CHANNELS 3 Xrotation Yrotation Zrotation
									JOINT mixamorig:RightHandMiddle2
									{
										OFFSET -6.378403 0.000000 0.000000
										CHANNELS 3 Xrotation Yrotation Zrotation
										JOINT mixamorig:RightHandMiddle3
										{
											OFFSET -6.148193 0.000000 0.000000
											CHANNELS 3 Xrotation Yrotation Zrotation
											JOINT mixamorig:RightHandMiddle4
											{
												OFFSET -6.583389 0.000000 0.000000
												CHANNELS 3 Xrotation Yrotation Zrotation
												End Site
												{
													OFFSET 1.171692 6.395905 1.029786
												}
											}
										}
									}
								}
								JOINT mixamorig:RightHandThumb1
								{
									OFFSET -7.190521 -3.860474 5.435846
									CHANNELS 3 Xrotation Yrotation Zrotation
									JOINT mixamorig:RightHandThumb2
									{
										OFFSET -6.567429 -3.791718 3.791708
										CHANNELS 3 Xrotation Yrotation Zrotation
										JOINT mixamorig:RightHandThumb3
										{
											OFFSET -6.062469 -3.500153 3.500166
											CHANNELS 3 Xrotation Yrotation Zrotation
											JOINT mixamorig:RightHandThumb4
											{
												OFFSET -4.792618 -2.767029 2.767022
												CHANNELS 3 Xrotation Yrotation Zrotation
												End Site
												{
													OFFSET -0.100327 6.053253 1.276754
												}
											}
										}
									}
								}
								JOINT mixamorig:RightHandIndex1
								{
									OFFSET -23.048981 -0.310791 4.992554
									CHANNELS 3 Xrotation Yrotation Zrotation
									JOINT mixamorig:RightHandIndex2
									{
										OFFSET -6.227539 0.000000 0.000000
										CHANNELS 3 Xrotation Yrotation Zrotation
										JOINT mixamorig:RightHandIndex3
										{
											OFFSET -6.095047 0.000000 0.000000
											CHANNELS 3 Xrotation Yrotation Zrotation
											JOINT mixamorig:RightHandIndex4
											{
												OFFSET -5.484772 0.000000 0.000000
												CHANNELS 3 Xrotation Yrotation Zrotation
												End Site
												{
													OFFSET 1.420593 5.237305 0.797056
												}
											}
										}
									}
								}
								JOINT mixamorig:RightHandRing1
								{
									OFFSET -22.246323 0.020569 -3.963762
									CHANNELS 3 Xrotation Yrotation Zrotation
									JOINT mixamorig:RightHandRing2
									{
										OFFSET -6.322128 0.000000 0.000000
										CHANNELS 3 Xrotation Yrotation Zrotation
										JOINT mixamorig:RightHandRing3
										{
											OFFSET -5.900024 0.000000 0.000000
											CHANNELS 3 Xrotation Yrotation Zrotation
											JOINT mixamorig:RightHandRing4
											{
												OFFSET -6.518356 0.000000 0.000000
												CHANNELS 3 Xrotation Yrotation Zrotation
												End Site
												{
													OFFSET 1.636398 6.232697 0.982186
												}
											}
										}
									}
								}
								JOINT mixamorig:RightHandPinky1
								{
									OFFSET -20.411011 -0.303314 -8.561701
									CHANNELS 3 Xrotation Yrotation Zrotation
									JOINT mixamorig:RightHandPinky2
									{
										OFFSET -6.907349 0.000000 0.000000
										CHANNELS 3 Xrotation Yrotation Zrotation
										JOINT mixamorig:RightHandPinky3
										{
											OFFSET -4.623840 0.000000 0.000000
											CHANNELS 3 Xrotation Yrotation Zrotation
											JOINT mixamorig:RightHandPinky4
											{
												OFFSET -5.218353 0.000000 0.000000
												CHANNELS 3 Xrotation Yrotation Zrotation
												End Site
												{
													OFFSET 0.602097 5.118835 0.816273
												}
											}
										}
									}
								}
							}
						}
					}
				}
			}
		}
	}
	JOINT mixamorig:LeftUpLeg
	{
		OFFSET 18.168400 -13.561905 -0.039000
		CHANNELS 3 Xrotation Yrotation Zrotation
		JOINT mixamorig:LeftLeg
		{
			OFFSET 0.577358 -80.825211 -3.695000
			CHANNELS 3 Xrotation Yrotation Zrotation
			JOINT mixamorig:LeftFoot
			{
				OFFSET -0.577356 -83.370262 -6.520700
				CHANNELS 3 Xrotation Yrotation Zrotation
				JOINT mixamorig:LeftToeBase
				{
					OFFSET 0.750401 -20.798306 25.135401
					CHANNELS 3 Xrotation Yrotation Zrotation
					JOINT mixamorig:LeftToe_End
					{
						OFFSET -0.000500 0.001200 19.917799
						CHANNELS 3 Xrotation Yrotation Zrotation
						End Site
						{
							OFFSET 0.000000 19.917805 0.000000
						}
					}
				}
			}
		}
	}
	JOINT mixamorig:RightUpLeg
	{
		OFFSET -18.162500 -13.585098 -0.041000
		CHANNELS 3 Xrotation Yrotation Zrotation
		JOINT mixamorig:RightLeg
		{
			OFFSET -0.595024 -80.945297 -3.631900
			CHANNELS 3 Xrotation Yrotation Zrotation
			JOINT mixamorig:RightFoot
			{
				OFFSET 0.595024 -83.218193 -6.561200
				CHANNELS 3 Xrotation Yrotation Zrotation
				JOINT mixamorig:RightToeBase
				{
					OFFSET -0.753601 -20.807106 25.115000
					CHANNELS 3 Xrotation Yrotation Zrotation
					JOINT mixamorig:RightToe_End
					{
						OFFSET 0.000299 0.001700 19.918200
						CHANNELS 3 Xrotation Yrotation Zrotation
						End Site
						{
							OFFSET 0.000000 19.918203 0.000000
						}
					}
				}
			}
		}
	}
}
MOTION
Frames: 4
Frame Time: 0.033333
0.156932 188.113602 -0.463284 -6.078875 -42.947215 -4.018944 5.832624 4.558492 -1.227393 11.836549 9.037617 -3.083972 11.836553 9.037622 -3.083974 -4.303070 -1.272953 0.206310 -6.271935 20.437794 -0.377163 -0.000001 0.000000 0.000000 -0.000001 0.000000 0.000000 -0.000001 0.000000 0.000000 1.392450 -0.696063 -7.877839 -14.260072 2.394292 -63.277188 9.865107 -47.524972 5.927978 16.172857 0.915253 18.795494 1.933761 9.689256 -14.539675 -0.508529 -1.619509 -21.876683 0.000003 -0.000007 -0.000002 0.000005 -0.000000 0.000002 9.163600 4.814110 -5.499027 -0.335120 0.033096 0.783759 0.000002 -0.000006 -0.000018 0.000000 0.000000 -0.000001 -0.901581 -6.981476 -3.808368 0.037933 0.803714 -16.419107 -0.000000 -0.000001 0.000002 -0.000001 0.000000 0.000000 2.600266 14.898396 -31.344578 -0.551857 -2.685322 -32.013728 -0.000005 -0.000007 -0.000008 -0.000004 0.000000 -0.000000 4.170622 18.495247 -34.987381 -0.648148 -5.810736 -39.367407 -0.000001 0.000009 0.000009 0.000002 -0.000001 -0.000002 1.410907 9.461478 9.792773 1.220033 -24.270739 60.532838 -6.660716 41.858367 8.043858 6.225259 12.322378 11.673307 -0.669625 -2.907626 12.731397 -0.667064 1.847239 30.577377 0.000002 -0.000001 0.000002 0.000001 0.000000 -0.000001 -8.931401 -4.920476 -0.377206 7.920541 -19.192944 -2.821792 -0.000003 0.000003 -0.000023 0.000001 -0.000000 0.000000 -1.085833 -1.215574 4.525250 0.142140 -1.115573 16.942605 0.000000 -0.000001 0.000003 0.000001 -0.000003 -0.000003 2.433471 -7.400485 21.764545 -0.959533 3.749157 37.432602 0.000001 -0.000003 0.000003 -0.000000 -0.000001 -0.000001 3.483950 -10.053379 24.323082 -1.457356 7.871503 41.092030 0.000004 -0.000002 -0.000007 -0.000001 0.000002 0.000001 -28.717435 5.478881 13.780881 35.016218 -14.076046 -0.184014 -3.699437 0.649165 -7.937948 -2.319103 -3.216983 0.802962 -0.000000 0.000001 0.000000 -7.183662 -13.136941 -15.783669 34.239018 -9.302785 -0.414332 -19.369371 -3.705644 16.561682 -1.784971 -0.356697 0.333185 0.000000 0.000002 0.000000 
-0.074501 187.007721 3.210004 -3.009710 -41.587840 -2.213636 5.307963 4.005029 -1.135709 10.757797 7.958080 -2.875071 10.757792 7.958089 -2.875072 -5.771973 0.757490 -0.237396 -4.084851 19.003207 -0.356592 -0.000000 -0.000000 -0.000000 -0.000000 -0.000000 -0.000000 -0.000000 -0.000000 -0.000000 1.178029 -2.078730 -5.687220 -14.536089 2.648297 -61.765626 10.521415 -47.375073 5.716442 17.220591 -0.001230 17.376486 1.938684 9.708131 -14.303023 -0.521987 -1.652706 -22.314575 0.000004 -0.000005 -0.000006 0.000002 -0.000002 0.000003 9.277779 4.428042 -7.071676 -0.470813 0.187635 0.250022 0.000004 -0.000010 -0.000015 0.000000 0.000001 0.000000 -0.917823 -7.075911 -4.839539 0.022234 0.752814 -16.858077 0.000003 -0.000001 -0.000003 0.000004 0.000002 -0.000000 2.611107 14.915697 -31.109319 -0.571862 -2.716983 -32.454487 -0.000006 -0.000010 -0.000011 -0.000001 0.000001 -0.000001 4.180005 18.506346 -34.751801 -0.665374 -5.813655 -39.812182 -0.000005 0.000010 0.000007 -0.000001 0.000001 -0.000000 1.313189 8.829209 9.531555 -0.100247 -20.883561 59.171104 -3.235704 42.541591 7.885462 6.925829 13.494207 8.155070 -0.592816 -2.972243 13.869909 -0.670549 1.853116 30.688132 0.000000 0.000000 0.000003 0.000001 -0.000000 -0.000000 -8.118483 -5.350871 1.104062 6.964245 -17.027209 -2.787483 -0.000001 0.000003 -0.000023 -0.000002 -0.000000 0.000000 -0.480510 -0.550777 6.002883 0.138850 -1.104878 17.053720 -0.000001 -0.000000 0.000002 -0.000000 -0.000002 -0.000001 1.757129 -7.905439 21.572691 -0.966823 3.758636 37.543576 -0.000001 -0.000002 -0.000003 0.000001 -0.000001 0.000001 2.484543 -11.312355 24.344338 -1.466131 7.876654 41.204359 0.000001 0.000000 -0.000004 -0.000002 0.000001 0.000002 -32.840533 5.395439 13.862252 39.032868 -14.440243 -1.336529 -5.571098 0.553591 -6.184508 -1.890660 -2.400233 0.422524 0.000000 -0.000000 -0.000000 -7.767489 -12.099371 -15.461057 34.255441 -11.401205 -0.720866 -19.902165 -4.148928 17.978771 -1.838983 -1.982309 1.920397 -0.000000 -0.000001 0.000000 
-0.130067 185.566513 7.701538 0.146066 -40.365626 -0.414792 4.808976 3.514142 -1.024077 9.736212 6.996892 -2.655217 9.736216 6.996880 -2.655214 -7.443550 2.629944 -1.150475 -1.912278 17.324725 -0.391974 0.000001 -0.000000 -0.000000 0.000001 -0.000000 -0.000000 0.000001 -0.000000 -0.000000 0.967203 -3.115127 -2.911302 -14.296085 3.284258 -59.512715 11.718021 -47.912411 5.680728 18.267281 -0.713382 14.588915 1.957298 9.782366 -13.516615 -0.523824 -1.657164 -22.373698 0.000003 -0.000007 -0.000003 -0.000000 -0.000000 0.000001 9.072057 4.099609 -8.041422 -0.602777 0.347127 -0.327069 0.000005 -0.000008 -0.000015 0.000001 0.000001 0.000000 -0.912369 -7.043983 -4.493263 0.020118 0.745933 -16.917373 0.000003 -0.000004 0.000008 0.000000 -0.000000 0.000000 2.642674 14.961997 -30.325736 -0.574568 -2.721231 -32.514170 -0.000003 -0.000007 -0.000011 0.000000 0.000001 0.000001 4.206037 18.542726 -33.968061 -0.667742 -5.814015 -39.872790 -0.000004 0.000012 0.000007 0.000001 -0.000001 -0.000000 1.288626 7.890467 7.824460 -1.490524 -17.150450 57.415806 0.631710 43.730358 7.269772 7.610616 15.107965 4.725972 -0.431102 -3.119970 15.480943 -0.684352 1.882743 31.061996 0.000001 -0.000001 0.000001 -0.000001 0.000000 -0.000003 -7.280549 -6.192041 2.803131 6.049831 -14.951469 -2.716579 -0.000003 0.000002 -0.000020 -0.000001 0.000000 -0.000002 0.142967 -0.038110 7.885961 0.130416 -1.073231 17.462736 0.000002 0.000001 0.000001 -0.000000 0.000001 -0.000001 1.220947 -8.361925 22.031614 -0.991534 3.790494 37.917939 -0.000001 -0.000004 0.000006 0.000000 0.000002 0.000000 1.646677 -12.385844 24.986601 -1.485559 7.898059 41.581092 0.000003 0.000002 -0.000006 0.000001 -0.000000 -0.000000 -37.454961 5.250482 14.274841 43.989307 -15.484215 -2.662414 -7.509144 0.512778 -5.200248 -2.015645 -2.076014 0.354137 -0.000000 -0.000001 0.000000 -8.497491 -11.209560 -15.510839 34.241569 -13.167642 -1.049748 -20.367387 -4.670534 19.649440 -1.797486 -3.332693 3.138121 -0.000000 0.000001 -0.000000 
-0.197060 184.148163 13.245125 3.311201 -39.254156 1.510392 4.308016 3.090743 -1.011442 8.721471 6.154810 -2.655225 8.721460 6.154810 -2.655222 -8.733272 4.234096 -0.909376 1.127149 16.152918 -1.266135 0.000001 0.000000 0.000000 0.000001 0.000000 0.000000 0.000001 0.000000 0.000000 0.868378 -4.432643 0.825678 -12.891663 4.599573 -55.599615 13.495837 -49.016156 5.167541 18.571365 -0.128312 12.067636 1.982207 9.887790 -12.434357 -0.519041 -1.645530 -22.219601 0.000003 -0.000007 -0.000003 0.000001 0.000001 -0.000000 8.656992 3.905553 -8.448555 -0.702074 0.527930 -0.882518 0.000002 -0.000009 -0.000017 0.000001 -0.000000 -0.000004 -0.903329 -6.911065 -3.154571 0.025643 0.763853 -16.762845 0.000001 -0.000004 0.000002 -0.000000 0.000001 -0.000002 2.684809 15.026584 -29.246901 -0.567573 -2.710396 -32.359015 -0.000004 -0.000007 -0.000010 -0.000003 0.000001 -0.000001 4.239540 18.591007 -32.888402 -0.661650 -5.813032 -39.717106 -0.000001 0.000011 0.000008 -0.000001 -0.000000 -0.000003 1.293125 7.432727 4.956625 -2.284377 -14.063667 54.622792 3.297383 44.132041 8.209858 6.630354 17.555830 0.827362 -0.192592 -3.316391 17.474849 -0.706406 1.929297 31.652196 -0.000001 -0.000001 0.000004 0.000001 0.000002 0.000002 -6.433575 -7.344613 4.647403 5.190014 -13.002488 -2.617206 -0.000003 0.000003 -0.000026 -0.000002 0.000000 0.000001 0.769982 0.357859 10.093321 0.154584 -1.062189 18.467300 0.000001 0.000002 0.000001 -0.000001 -0.000001 -0.000001 0.831520 -8.763256 23.047350 -1.030929 3.840428 38.508467 -0.000003 -0.000002 0.000002 0.000003 -0.000000 0.000004 0.975752 -13.289961 26.158397 -1.516915 7.931182 42.175424 0.000000 -0.000002 -0.000003 0.000000 0.000001 -0.000001 -42.746179 5.127622 15.009211 49.808540 -16.855375 -4.061986 -7.737529 0.668045 -6.664727 -2.822920 -1.718894 0.868110 -0.000001 -0.000002 0.000000 -9.050318 -10.813219 -15.998677 33.748173 -14.639798 -1.467675 -20.793603 -4.828032 20.626763 -2.665455 -4.769411 3.925989 -0.000000 0.000000 -0.000000 
